<svg width="140" height="71" viewBox="0 0 140 71" fill="none" xmlns="http://www.w3.org/2000/svg">
<g clip-path="url(#clip0_104147_129)">
<path d="M140 0.5H0L60.3623 66.2C65.6377 72 74.3623 72 79.6377 66.2L140 0.5Z" fill="#81B3D3"/>
<path d="M37.2318 1L69.797 38.9L102.261 1.2L37.2318 1Z" fill="#23A9E1"/>
<path d="M61.9856 15.2H79.5363C78.2175 14.4 75.0725 10.6 73.4494 12C73.3479 12.1 68.4783 6.30001 65.3334 9.10001C62.5943 11.6 61.2754 8.80001 58.232 10.7C54.5798 13.1 60.2609 14.4 61.9856 15.2ZM89.0725 11.7L79.1305 11.8C83.087 7.30001 84.8117 7.80001 89.0725 11.7Z" fill="white"/>
<path d="M99.0145 4.1V1.7H101.145L99.0145 4.1ZM49.1014 13.5C49.2029 13.6 51.5362 11.1 55.2898 8.6C58.7391 6.3 64.0145 3.7 69.8985 3.7C75.7826 3.7 81.1594 6.4 84.6087 8.7C88.3623 11.1 90.6956 13.5 90.7971 13.6L88.2609 16.6C83.6956 17.2 80.4493 20.5 75.9855 19.8C73.7536 19.4 73.6522 18.2 73.0435 16.9C72.5362 15.9 71.7246 16.1 70.7101 15.7C69.7971 15.3 69.1884 14.6 67.2609 15C65.6377 15.4 65.4348 17.9 63.3043 17.8C62.1884 17.7 62.0869 16.2 60.4638 14.2C56.3043 9.3 52.5107 9.91045 49.873 14.4104L49.1014 13.5ZM40.5797 1.7V3.6L38.9565 1.7H40.5797ZM95.2609 1.7H98.5072V4.7L95.2609 8.5V1.7ZM91.1014 13.1V1.7H94.6522V9.1L91.1014 13.1ZM90.5942 2.7V12.6C89.4783 11.5 88.2609 10.5 86.942 9.6L90.5942 2.7ZM86.4348 2.4V9.2C85.9275 8.9 85.5217 8.5 84.913 8.2C84.2029 7.8 83.4927 7.3 82.6812 6.9L86.4348 2.4ZM81.971 2.2V6.5C80.9565 6 79.8406 5.5 78.8261 5L81.971 2.2ZM82.5797 1.7H86.3333L82.5797 6.3V1.7ZM86.942 1.7H90.5942L86.942 8.8V1.7ZM78.0145 1.7H81.971L78.4203 4.8C78.3188 4.8 78.2174 4.7 78.1159 4.7L78.0145 1.7ZM77.5072 2.1V4.5C76.4927 4.1 75.4783 3.8 74.3623 3.6L77.5072 2.1ZM73.2464 2.1V3.4C72.5362 3.3 71.8261 3.2 71.0145 3.1L73.2464 2.1ZM66.3478 2.1L68.5797 3.1C67.7681 3.1 67.058 3.2 66.3478 3.4V2.1ZM62.1884 2.1L65.3333 3.6C64.2174 3.8 63.2029 4.1 62.1884 4.5V2.1ZM65.8406 3.3L62.4927 1.7H65.8406V3.3ZM69.3913 2.9L66.5507 1.6H69.3913V2.9ZM70.1014 1.7H73.0435L70.1014 3V1.7ZM73.8551 1.7H77.1014L73.8551 3.3V1.7ZM61.2754 4.8L57.7246 1.7H61.6812V4.7L61.2754 4.8ZM57.6232 2.2L60.7681 4.9C59.6522 5.3 58.6377 5.8 57.6232 6.4V2.2ZM53.2609 2.4L56.913 6.9C55.5942 7.6 54.3768 8.4 53.2609 9.3V2.4ZM49 2.7L52.6522 9.7C51.3333 10.7 50.1159 11.7 49 12.9V2.7ZM52.7536 8.7L49.1014 1.6H52.7536V8.7ZM57.1159 6.2L53.3623 1.6H57.1159V6.2ZM44.3333 8L41.0869 4.2V1.7H44.3333V8ZM44.942 1.7H48.4927V12.9L44.942 8.7V1.7ZM36.5217 0.5V15.1L70 55L103.478 15.5V0.5H36.5217Z" fill="#491213"/>
<path d="M67.3623 46.5L70 42.3L72.6376 46.5L70 50.7L67.3623 46.5Z" fill="#23A9E1"/>
<path d="M75.2753 31.1C71.826 29.1 72.6376 27.6 75.4782 26.2C76.9999 25.5 80.3478 22.8 81.6666 23.7L75.2753 31.1ZM72.942 33.6C70.913 33.5 68.5796 33.2 66.5507 33.7C67.768 34 70.8115 34.9 67.9709 35.6C68.9854 37 70.6086 36.9 71.6231 35.7C71.2173 35.5 70.913 35.2 70.6086 35C71.7246 34.7 72.7391 34.1 72.942 33.6ZM74.1593 32C73.2463 31.2 72.2318 31.2 71.4202 32C70.2028 29.9 65.942 30.6 63.913 30.3C65.0289 32.9 73.6521 33.4 74.1593 32ZM67.2608 29.8C65.6376 29.3 60.3622 29.4 63.8115 28C64.9275 27.6 70.6086 28.1 67.2608 29.8ZM69.2898 26.8C68.7825 25.7 69.6956 24.4 71.0144 25.4C72.2318 26.2 70.4057 27.4 69.2898 26.8ZM66.3478 26.9C64.0144 27.6 60.9709 26.1 64.7246 25.4C67.0579 24.9 69.4927 25.9 66.3478 26.9C66.4492 26.9 66.2463 26.9 66.3478 26.9ZM63.7101 20.7C63.2028 22.3 62.1883 22.6 62.2898 20.7C62.3912 18.4 63.913 19 65.5362 18.1C66.855 17.4 67.5651 14.7 69.8985 16.3C70.913 17 72.1304 16.4 72.4347 17.5C72.4347 17.4 69.4927 24.2 71.1159 24.2C67.8695 24.2 69.2898 20.4 70.5072 17.8C69.2898 18.4 67.3622 22.1 68.9854 22.8C68.1738 23.9 65.5362 25.4 64.2173 24.3C63.1014 23.3 63.7101 22 63.7101 20.7ZM59.6521 23.5C53.9709 23.5 57.826 14.9 59.7536 15.4C61.9854 16.1 61.6811 23.6 59.6521 23.5ZM53.3622 15.3C50.7246 15.2 51.8405 12.7 53.6666 12.2C55.3912 11.7 58.942 13.3 60.1593 14.4C58.3333 15 55.9999 14.9 53.9709 15C53.768 13 53.2608 13.7 53.3622 15.3Z" fill="#DC6243"/>
<path d="M72.8406 26.3C69.8986 23.3 77.203 23.6 78.4203 22.5C79.2319 22.8 85.5218 17.1 87.0435 17.5C85.9276 18.8 83.5943 22.8 81.9711 22.8C80.6522 22.8 79.3334 22.6 78.3189 23.5C76.7971 24.9 74.3624 25.6 72.8406 26.3Z" fill="#F49774"/>
<path d="M73.7537 22.7C72.1305 23.6 70.6088 20.2 73.4494 20.5C75.2754 20.7 77.203 20.3 78.9276 20.6C77.6088 22.1 75.7827 22.9 73.7537 22.7Z" fill="#F4B1A4"/>
<path d="M51.8406 21.4C52.145 21.8 52.4493 22.2 52.3479 22.8C52.3479 23.2 51.7392 23.8 52.145 24L53.6667 22.2C53.2609 22.1 50.116 18.4 50.116 18L47.9856 19.1C48.087 19.5 48.7971 19.1 49.2029 19.1C49.7102 19.1 50.116 19.5 50.5218 19.8C49.4058 20.7 46.6667 23.1 46.3624 23.1C46.2609 23.1 45.6522 22.7 45.6522 23.1C45.6522 23.3 46.2609 23.8 46.3624 23.9L47.7827 25.6C48.1885 25.4 47.6812 25.1 47.8841 24.8C47.9856 24.6 51.1305 22.1 51.8406 21.4ZM48.3914 16.9C48.6957 16.8 48.7971 17.2 49 16.9L47.3769 15C47.174 14.7 46.8696 14.4 46.8696 15C46.9711 15.4 42.8116 18.7 42.6087 18.8C42.3044 18.9 42.1015 18.5 41.8986 18.9C42.4058 19.5 42.8116 20 43.3189 20.6C43.5218 20.8 43.6232 21 43.8261 21.2C44.029 21.4 43.9276 20.8 43.9276 20.8C43.8261 20.5 44.2319 20.2 44.5363 20C45.5508 19 48.087 16.9 48.3914 16.9ZM42.6087 16.3C41.4928 16.6 40.174 16.2 39.8696 15C39.4638 13.8 40.2754 12.6 41.1884 11.9C42.1015 11.2 43.5218 11.3 44.029 12.4C44.2319 12.9 44.1305 13.5 43.9276 14C43.8261 14.3 43.5218 14.6 43.9276 14.8C44.5363 14.1 45.0435 13.4 45.6522 12.7C44.9421 12.3 44.6377 11.6 44.1305 11C43.5218 10.3 42.8116 9.59999 41.7971 9.49999C39.8696 9.19999 38.145 11.2 37.9421 12.9C37.8406 13.8 38.145 14.7 38.7537 15.5C39.2609 16.1 39.9711 16.6 40.3769 17.3C40.5798 17.4 42.2029 16.6 42.5073 16.5C42.7102 16.5 42.6087 16.4 42.6087 16.3C42.6087 16.3 42.1015 16.5 42.6087 16.3ZM68.4783 39.9C67.7682 39.4 65.8406 36.9 65.4348 36.4L65.2319 36.1L65.029 36.2C64.9276 36.3 65.1305 36.6 65.029 36.8C64.5218 37.6 61.2754 40 61.0725 40.2C60.6667 40.4 60.2609 40.1 60.058 40.4C60.5653 41 61.8841 42.7 62.087 42.7C62.3913 42.7 62.1884 42.2 62.1884 42.1C62.2899 41.9 63.9131 40.5 64.5218 40C64.7247 39.8 64.9276 40.3 65.1305 40.5C65.3334 40.8 65.4348 41.2 65.3334 41.5C65.2319 41.7 64.8261 42.1 65.1305 42.3C65.5363 41.8 66.6522 40.5 66.8551 40.3C67.058 40.1 66.4493 40.3 66.5508 40.2C66.3479 40.3 66.0435 40.4 65.8406 40.2C65.7392 40.2 65.1305 39.5 65.2319 39.4C65.5363 39.2 65.8406 38.8 66.2464 38.7C66.8551 38.6 67.2609 39.7 67.3624 40.1C67.4638 40.5 67.4638 40.9 67.2609 41.2C67.1595 41.5 66.9566 41.7 67.2609 41.8L68.6812 39.9C68.6812 40 68.5798 40 68.4783 39.9C68.5798 40 68.3769 39.9 68.4783 39.9ZM59.145 31C58.4348 31 57.7247 31.3 57.116 31.8C55.6957 33 55.4928 35.1 56.6087 36.6C57.9276 38.3 60.058 38.5 61.7827 37.3C63.2029 36.1 63.4058 34 62.2899 32.5C61.4783 31.5 60.2609 31 59.145 31ZM60.3624 32.4C61.2754 32.3 61.8841 33.2 61.4783 34.2C61.0725 35.2 60.058 36.2 59.0435 36.6C57.8261 37.1 57.0145 36.1 57.5218 34.9C57.9276 33.9 58.9421 32.9 59.9566 32.5C60.058 32.5 60.1595 32.4 60.3624 32.4ZM57.5218 27.8C57.8261 27.8 58.1305 28.2 58.3334 27.8L56.9131 26.1C56.5073 26.3 56.9131 26.5 56.8116 26.7C56.6087 27 55.087 27.2 54.6812 27.3C54.7827 26.9 55.2899 25.6 55.4928 25.5C55.8986 25.2 56.1015 25.8 56.3044 25.4L54.4783 23.3C54.2754 23.1 54.0725 22.6 53.8696 22.9C53.8696 22.9 53.8696 23.9 53.7682 24C53.6667 24.2 53.1595 26.4 52.5508 26.9C52.2464 27.2 51.029 28.2 50.7247 28.3C50.4203 28.4 50.2174 27.9 49.9131 28.3L51.5363 30.2C51.6377 30.3 51.9421 30.8 52.0435 30.8C52.3479 30.9 52.0435 30.2 52.145 30.1C52.2464 29.8 53.7682 28.3 54.4783 28.2C55.3913 28 56.5073 27.7 57.5218 27.8C57.7247 27.8 57.3189 27.8 57.5218 27.8ZM82.0725 34.5C82.174 34.9 82.2754 35.4 82.174 35.8C82.0725 36.4 81.5653 37.7 80.7537 37.3C79.9421 36.9 79.3334 36.2 78.6232 35.6C79.1305 35 79.6377 34.5 80.5508 34.8C80.7537 34.9 80.9566 34.8 80.7537 34.6C80.4493 34.4 78.7247 33.3 78.6232 33.4C78.4203 33.6 78.9276 34 78.7247 34.4C78.6232 34.7 78.3189 34.9 78.116 35.2C77.6087 34.8 76.8986 34.4 77.4058 33.7C77.8116 33.3 78.2174 32.9 78.8261 32.8C79.2319 32.7 80.0435 33.1 80.145 32.7C79.4348 32.4 78.7247 32 78.0145 31.7C78.116 32.2 75.7827 34.6 75.2754 35.2C75.174 35.3 74.8696 35.6 74.8696 35.7C74.8696 36 75.2754 35.8 75.2754 35.8C75.5798 35.7 79.7392 39.1 79.8406 39.4C79.9421 39.6 79.7392 39.8 79.8406 39.9C79.8406 39.9 79.9421 40 80.0435 40C80.3479 39.7 82.9856 36.1 83.5942 36C83.087 35.2 82.5798 34.4 82.0725 33.6C81.6667 33.8 81.9711 34.3 82.0725 34.5ZM78.0145 38.9C76.6957 38 74.3624 39.7 73.9566 39.9C73.2464 40.2 72.7392 39.5 73.145 38.9C73.4493 38.4 74.058 38.1 74.6667 38.1C74.8696 38.1 75.5798 38.2 75.5798 38.1C75.6812 38 75.6812 38 75.5798 37.9C74.9711 37.5 74.4638 37.1 73.8551 36.8C73.7537 37.5 72.9421 37.9 72.5363 38.4C72.029 39 71.5218 39.7 71.5218 40.4C71.5218 41.1 71.9276 41.8 72.6377 42.1C73.3479 42.5 74.1595 42.2 74.8696 41.8C75.2754 41.5 75.6812 41.2 76.087 41C76.6957 40.7 77.6087 41 77.4058 41.8C77.2029 42.5 76.4928 43.1 75.7827 43.3C75.3769 43.4 74.9711 43.4 74.5653 43.2C74.2609 43.1 73.9566 42.7 73.7537 43.1L76.087 44.7C76.1885 44.2 76.3913 44 76.7971 43.7C77.3044 43.3 77.7102 42.8 78.116 42.3C78.9276 41.4 79.2319 39.8 78.0145 38.9ZM95.8696 10.8C95.8696 10.9 95.8696 10.9 95.8696 10.8L94.9566 11.8L94.145 12.8C93.9421 13 93.8406 13.1 94.145 13.3C94.6522 13 97.6957 18.1 97.4928 18.8C96.9856 19 92.9276 15.5 92.8261 15.3C92.8261 15.2 93.029 14.6 92.7247 14.7C92.6232 14.7 92.2174 15.3 92.116 15.4L91.5073 16.1C91.7102 16.4 91.8116 16.1 92.116 16.1C92.3189 16.2 93.3334 17 93.6377 17.2C93.1305 17.2 91.9131 17.3 91.7102 17.3C91.1015 17.4 91.4058 16.9 91 16.7L89.4783 18.5L88.5653 19.5C88.5653 19.5 88.5653 19.5 88.5653 19.6C88.7682 19.8 88.6667 19.7 88.9711 19.6C89.2754 19.5 93.3334 22.8 93.4348 23C93.6377 23.3 93.3334 23.6 93.7392 23.8L94.9566 22.4C95.058 22.3 95.058 22.3 94.9566 22.3C94.6522 22.1 94.6522 22.4 94.2464 22.4C93.9421 22.3 91.3044 20.2 90.3913 19.4L95.7682 19.2C95.9711 19.2 96.4783 19.8 96.4783 20C96.3769 20.2 96.174 20.4 96.4783 20.5C96.7827 20.1 97.087 19.8 97.3913 19.4L97.4928 19.2C97.5942 19.2 97.5942 19.1 97.5942 19L97.6957 18.9C98 18.6 98.9131 17.6 98.8116 17.5C98.5073 17.2 98.4058 17.8 98 17.5C97.7971 17.3 97.1884 16.3 97.087 16.1C96.8841 15.8 97.4928 15.5 97.6957 15.4C98.2029 15.1 99.8261 14.6 100.029 15.6C100.029 15.8 99.8261 16 99.9276 16.1C99.9276 16.1 100.029 16.3 100.13 16.2L102.261 13.6C102.159 13.5 102.159 13.5 102.058 13.4C101.551 13.9 96.4783 11.9 96.174 11.6C96.0725 11.4 96.0725 10.8 95.8696 10.8ZM95.6667 13.4C96.4783 13.7 97.1884 14 98 14.4C97.7971 14.5 97.5942 14.6 97.3913 14.7C97.1885 14.8 96.9856 15 96.7827 15.2L95.6667 13.4ZM88.9711 21.1C87.8551 21 86.7392 21.5 85.9276 22.4C84.7102 23.9 84.8116 26.1 86.3334 27.3C87.8551 28.5 90.087 28.2 91.3044 26.8C92.5218 25.3 92.4203 23.1 90.8986 21.9C90.3913 21.5 89.6812 21.2 88.9711 21.1ZM87.5508 22.7C88.1595 22.7 88.8696 23.1 89.2754 23.4C90.087 23.9 91.5073 25.1 90.7971 26.1C90.7971 26 90.8986 26 90.6957 26.2C89.8841 27 88.4638 26.3 87.7537 25.7C87.0435 25.2 85.7247 24 86.5363 23C86.8406 22.8 87.145 22.7 87.5508 22.7ZM84.4058 27C83.1884 26.9 81.9711 27.5 81.058 28.6C80.4493 29.4 79.7392 30.1 79.1305 30.9C79.3334 31.2 79.6377 30.8 79.9421 31C80.2464 31.2 84.1015 34.3 84.1015 34.5C84.2029 34.8 83.8986 34.9 84.2029 35.1C84.3044 35.2 87.145 31.7 87.4493 31.1C87.8551 30 87.5508 28.7 86.6377 27.9C86.7392 28 86.8406 28 86.6377 27.9C85.8261 27.3 85.116 27 84.4058 27ZM83.2899 28.6C83.3913 28.6 83.4928 28.6 83.5942 28.6C85.0145 29 87.0435 30.7 85.7247 32.2C85.5218 32.4 85.7247 32.2 85.3189 32.6C85.116 32.8 81.058 29.6 81.2609 29.4C81.6667 28.9 82.5798 28.5 83.2899 28.6Z" fill="white"/>
</g>
<defs>
<clipPath id="clip0_104147_129">
<rect width="140" height="70" fill="white" transform="translate(0 0.5)"/>
</clipPath>
</defs>
</svg>
