<svg width="18" height="18" viewBox="0 0 18 18" fill="none" xmlns="http://www.w3.org/2000/svg">
<path d="M8.9 17.5C8.6 17.5 8.3 17.4 8.1 17.1C2.7 11 1.4 9.6 1.1 9.2C0.4 8.3 0 7.1 0 5.9C0 2.9 2.4 0.5 5.5 0.5C6.8 0.5 8 1 9 1.8C10 1 11.3 0.5 12.5 0.5C15.5 0.5 18 2.9 18 5.9C18 7.2 17.5 8.4 16.7 9.3L9.7 17.2C9.5 17.4 9.3 17.5 8.9 17.5ZM2.9 8C3.2 8.4 6.4 12 9 14.9L15.2 7.9C15.7 7.4 15.9 6.7 15.9 5.9C15.9 4.1 14.4 2.6 12.6 2.6C11.6 2.6 10.6 3.1 9.9 3.9C9.6 4.2 9.3 4.3 9 4.3C8.7 4.3 8.4 4.1 8.2 3.9C7.5 3.1 6.5 2.6 5.5 2.6C3.7 2.6 2.2 4.1 2.2 5.9C2.1 6.8 2.5 7.5 2.9 8C2.8 8 2.8 8 2.9 8Z" fill="black"/>
</svg>
