<svg width="44" height="65" viewBox="0 0 44 65" fill="none" xmlns="http://www.w3.org/2000/svg">
<path d="M31.5 40.5083L27.8 36.8287C28.8 35.5359 29.5 33.8453 29.5 31.9558C29.5 27.5801 25.9 24 21.5 24C17.1 24 13.5 27.6796 13.5 32.0552C13.5 36.4309 17.1 40.011 21.5 40.011C23.3 40.011 25 39.4144 26.4 38.3204L30.1 42L31.5 40.5083ZM21.5 38.0221C18.2 38.0221 15.5 35.337 15.5 32.0552C15.5 28.7735 18.2 26.0884 21.5 26.0884C24.8 26.0884 27.5 28.7735 27.5 32.0552C27.5 35.337 24.8 38.0221 21.5 38.0221Z" fill="black"/>
</svg>
